<svg width="1605" height="430" viewBox="0 0 1605 430" fill="none" xmlns="http://www.w3.org/2000/svg">
<path fill-rule="evenodd" clip-rule="evenodd" d="M294.118 15H0V309.118H294.118V15ZM147.059 216.471C177.11 216.471 201.471 192.11 201.471 162.059C201.471 132.008 177.11 107.647 147.059 107.647C117.008 107.647 92.6471 132.008 92.6471 162.059C92.6471 192.11 117.008 216.471 147.059 216.471Z" fill="url(#paint0_linear_317_87)"/>
<path fill-rule="evenodd" clip-rule="evenodd" d="M188.235 203.235V309.118L294.118 203.235L400 203.235V415H188.235V203.235H188.235Z" fill="url(#paint1_linear_317_87)"/>
<g filter="url(#filter0_d_317_87)">
<path d="M294 204L189 309H241.5C275 309 294 284 294 256.5V204Z" fill="white"/>
</g>
<path d="M576.199 171L567.059 137.689H526.805L517.576 171H496.307L535.418 44.1738H559.852L598.963 171H576.199ZM546.58 66.4102L531.551 120.814H562.4L547.459 66.4102H546.58ZM700.477 74.7598V171H680.701V154.564H679.295C674.373 166.342 663.738 172.934 649.588 172.934C628.67 172.934 617.332 160.453 617.332 137.074V74.7598H637.811V132.152C637.811 147.621 644.139 154.916 657.322 154.916C671.033 154.916 679.998 145.424 679.998 130.834V74.7598H700.477ZM767.537 128.109V155.707H796.189V171H729.129V155.707H747.85V90.0527H727.283V74.7598H767.625V99.3691H770.613C774.568 80.8242 785.291 72.2109 803.572 72.2109C809.021 72.2109 814.031 72.9141 817.371 74.2324V96.4688C813.064 94.7988 806.736 93.7441 801.463 93.7441C779.227 93.7441 767.537 105.873 767.537 128.109ZM881.443 172.934C854.9 172.934 838.113 156.41 838.113 130.219V115.541C838.113 89.3496 854.9 72.8262 881.443 72.8262C907.986 72.8262 924.773 89.3496 924.773 115.541V130.219C924.773 156.41 907.986 172.934 881.443 172.934ZM881.443 89.7891C867.205 89.7891 858.328 100.072 858.328 116.684V129.076C858.328 145.688 867.205 155.971 881.443 155.971C895.682 155.971 904.559 145.688 904.559 129.076V116.684C904.559 100.072 895.682 89.7891 881.443 89.7891ZM990.076 128.109V155.707H1018.73V171H951.668V155.707H970.389V90.0527H949.822V74.7598H990.164V99.3691H993.152C997.107 80.8242 1007.83 72.2109 1026.11 72.2109C1031.56 72.2109 1036.57 72.9141 1039.91 74.2324V96.4688C1035.6 94.7988 1029.28 93.7441 1024 93.7441C1001.77 93.7441 990.076 105.873 990.076 128.109ZM1092.29 172.582C1074.01 172.582 1061.79 160.98 1061.79 143.578C1061.79 126.352 1074.28 116.156 1097.3 114.75L1121.38 113.344V105.258C1121.38 95.3262 1114.97 89.7012 1103.72 89.7012C1094.31 89.7012 1087.46 93.7441 1085.35 100.775H1065.31C1067.07 84.1641 1082.62 73.1777 1104.25 73.1777C1128.06 73.1777 1141.6 84.8672 1141.6 105.434V171H1122.18V157.553H1120.33C1115.67 167.133 1105.39 172.582 1092.29 172.582ZM1098.88 155.883C1111.89 155.883 1121.38 147.533 1121.38 135.932V127.143L1100.38 128.285C1088.34 128.988 1082.1 133.822 1082.1 142.348C1082.1 150.697 1088.6 155.883 1098.88 155.883ZM1326.52 154.389C1342.43 154.389 1351.48 143.842 1351.48 125.209V44.1738H1372.66V126.439C1372.66 156.059 1355.53 173.549 1326.52 173.549C1297.52 173.549 1280.38 156.059 1280.38 126.439V44.1738H1301.56V125.209C1301.56 143.842 1310.61 154.389 1326.52 154.389ZM1474.44 171H1401.14V152.719H1427.16V62.4551H1401.14V44.1738H1474.44V62.4551H1448.43V152.719H1474.44V171ZM589.91 375.102V386H516.17V259.174H528.123V375.102H589.91ZM660.662 266.293C654.686 266.293 649.764 261.371 649.764 255.395C649.764 249.418 654.686 244.496 660.662 244.496C666.639 244.496 671.561 249.418 671.561 255.395C671.561 261.371 666.639 266.293 660.662 266.293ZM700.125 386H622.869V376.684H656.18V300.658H622.693V291.342H667.693V376.684H700.125V386ZM774.393 387.582C760.945 387.582 750.838 382.309 745.301 372.377H743.719V386H732.732V253.637H744.246V305.316H745.828C750.311 295.385 760.682 289.76 774.393 289.76C796.365 289.76 811.307 305.932 811.307 329.574V347.768C811.307 371.41 796.365 387.582 774.393 387.582ZM771.844 377.299C788.807 377.299 799.793 364.555 799.793 345.043V332.387C799.793 312.875 788.807 300.131 771.844 300.131C754.969 300.131 743.982 312.787 743.982 332.387V345.043C743.982 364.643 754.969 377.299 771.844 377.299ZM876.961 343.461V376.684H907.02V386H845.936V376.684H865.447V300.658H844.002V291.342H876.697V315.424H877.928C881.18 298.549 893.66 288.969 912.117 288.969C917.566 288.969 922.928 289.76 925.916 291.078V303.646C921.521 302.064 915.457 301.01 910.359 301.01C889.969 301.01 876.961 317.533 876.961 343.461ZM984.363 387.67C966.17 387.67 954.129 376.42 954.129 359.281C954.129 342.67 965.994 332.738 986.912 331.771L1014.33 330.541V321.576C1014.33 307.953 1006.51 300.57 992.01 300.57C980.057 300.57 971.795 305.668 969.158 314.809H957.732C959.49 300.658 973.729 290.551 992.01 290.551C1013.46 290.551 1025.94 301.801 1025.94 321.049V386.088H1014.86V371.146H1013.63C1009.15 381.781 998.689 387.67 984.363 387.67ZM987.176 377.475C1002.47 377.475 1014.33 366.928 1014.33 353.305V340.121L987.703 341.264C973.553 341.879 965.994 348.207 965.994 359.281C965.994 370.531 974.08 377.475 987.176 377.475ZM1099.5 343.461V376.684H1129.56V386H1068.47V376.684H1087.99V300.658H1066.54V291.342H1099.24V315.424H1100.47C1103.72 298.549 1116.2 288.969 1134.66 288.969C1140.11 288.969 1145.47 289.76 1148.46 291.078V303.646C1144.06 302.064 1138 301.01 1132.9 301.01C1112.51 301.01 1099.5 317.533 1099.5 343.461ZM1189.24 419.486C1187.83 419.486 1185.37 419.311 1183.88 419.135V409.115C1185.19 409.379 1187.65 409.467 1189.06 409.467C1197.76 409.467 1202.51 405.072 1207.17 392.504L1209.1 386.615L1173.59 291.342H1186.07L1214.72 373.432H1215.78L1244.34 291.342H1256.65L1219.82 390.57C1211.38 413.334 1204.71 419.486 1189.24 419.486Z" fill="white"/>
<defs>
<filter id="filter0_d_317_87" x="181.2" y="195.2" width="136.6" height="136.6" filterUnits="userSpaceOnUse" color-interpolation-filters="sRGB">
<feFlood flood-opacity="0" result="BackgroundImageFix"/>
<feColorMatrix in="SourceAlpha" type="matrix" values="0 0 0 0 0 0 0 0 0 0 0 0 0 0 0 0 0 0 127 0" result="hardAlpha"/>
<feOffset dx="8" dy="7"/>
<feGaussianBlur stdDeviation="7.9"/>
<feComposite in2="hardAlpha" operator="out"/>
<feColorMatrix type="matrix" values="0 0 0 0 0 0 0 0 0 0 0 0 0 0 0 0 0 0 0.14 0"/>
<feBlend mode="normal" in2="BackgroundImageFix" result="effect1_dropShadow_317_87"/>
<feBlend mode="normal" in="SourceGraphic" in2="effect1_dropShadow_317_87" result="shape"/>
</filter>
<linearGradient id="paint0_linear_317_87" x1="0" y1="15" x2="294" y2="309" gradientUnits="userSpaceOnUse">
<stop stop-color="#31C4F3"/>
<stop offset="1" stop-color="#129ECC"/>
</linearGradient>
<linearGradient id="paint1_linear_317_87" x1="400" y1="415" x2="188" y2="203" gradientUnits="userSpaceOnUse">
<stop stop-color="#22EB91"/>
<stop offset="1" stop-color="#2CB074"/>
</linearGradient>
</defs>
</svg>
