<svg width="1383" height="430" viewBox="0 0 1383 430" fill="none" xmlns="http://www.w3.org/2000/svg">
<path fill-rule="evenodd" clip-rule="evenodd" d="M294.118 15H0V309.118H294.118V15ZM147.059 216.471C177.11 216.471 201.471 192.11 201.471 162.059C201.471 132.008 177.11 107.647 147.059 107.647C117.008 107.647 92.6471 132.008 92.6471 162.059C92.6471 192.11 117.008 216.471 147.059 216.471Z" fill="url(#paint0_linear_310_85)"/>
<path fill-rule="evenodd" clip-rule="evenodd" d="M188.235 203.235V309.118L294.118 203.235L400 203.235V415H188.235V203.235H188.235Z" fill="url(#paint1_linear_310_85)"/>
<g filter="url(#filter0_d_310_85)">
<path d="M294 204L189 309H241.5C275 309 294 284 294 256.5V204Z" fill="white"/>
</g>
<path d="M501.844 136.195H522.146C523.377 148.412 533.221 155.619 548.689 155.619C563.631 155.619 573.211 148.148 573.211 136.459C573.211 126.879 566.883 121.43 551.238 117.738L539.021 114.838C515.818 109.301 504.744 97.6113 504.744 78.9785C504.744 56.2148 521.795 41.625 548.426 41.625C573.914 41.625 591.229 56.0391 592.02 78.0117H571.805C570.662 66.4102 561.961 59.5547 548.602 59.5547C534.539 59.5547 526.014 66.1465 526.014 77.1328C526.014 86.8887 532.166 92.4258 547.02 95.8535L559.236 98.7539C583.758 104.467 594.305 115.365 594.305 134.613C594.305 158.695 576.727 173.549 548.338 173.549C520.564 173.549 502.898 159.398 501.844 136.195ZM687.469 171L678.328 137.689H638.074L628.846 171H607.576L646.688 44.1738H671.121L710.232 171H687.469ZM657.85 66.4102L642.82 120.814H673.67L658.729 66.4102H657.85ZM724.383 136.195H744.686C745.916 148.412 755.76 155.619 771.229 155.619C786.17 155.619 795.75 148.148 795.75 136.459C795.75 126.879 789.422 121.43 773.777 117.738L761.561 114.838C738.357 109.301 727.283 97.6113 727.283 78.9785C727.283 56.2148 744.334 41.625 770.965 41.625C796.453 41.625 813.768 56.0391 814.559 78.0117H794.344C793.201 66.4102 784.5 59.5547 771.141 59.5547C757.078 59.5547 748.553 66.1465 748.553 77.1328C748.553 86.8887 754.705 92.4258 769.559 95.8535L781.775 98.7539C806.297 104.467 816.844 115.365 816.844 134.613C816.844 158.695 799.266 173.549 770.877 173.549C743.104 173.549 725.438 159.398 724.383 136.195ZM892.078 171H870.809V62.7188H833.719V44.1738H929.168V62.7188H892.078V171ZM1103.98 154.389C1119.89 154.389 1128.94 143.842 1128.94 125.209V44.1738H1150.12V126.439C1150.12 156.059 1132.99 173.549 1103.98 173.549C1074.98 173.549 1057.84 156.059 1057.84 126.439V44.1738H1079.02V125.209C1079.02 143.842 1088.07 154.389 1103.98 154.389ZM1251.9 171H1178.6V152.719H1204.62V62.4551H1178.6V44.1738H1251.9V62.4551H1225.89V152.719H1251.9V171ZM589.91 375.102V386H516.17V259.174H528.123V375.102H589.91ZM660.662 266.293C654.686 266.293 649.764 261.371 649.764 255.395C649.764 249.418 654.686 244.496 660.662 244.496C666.639 244.496 671.561 249.418 671.561 255.395C671.561 261.371 666.639 266.293 660.662 266.293ZM700.125 386H622.869V376.684H656.18V300.658H622.693V291.342H667.693V376.684H700.125V386ZM774.393 387.582C760.945 387.582 750.838 382.309 745.301 372.377H743.719V386H732.732V253.637H744.246V305.316H745.828C750.311 295.385 760.682 289.76 774.393 289.76C796.365 289.76 811.307 305.932 811.307 329.574V347.768C811.307 371.41 796.365 387.582 774.393 387.582ZM771.844 377.299C788.807 377.299 799.793 364.555 799.793 345.043V332.387C799.793 312.875 788.807 300.131 771.844 300.131C754.969 300.131 743.982 312.787 743.982 332.387V345.043C743.982 364.643 754.969 377.299 771.844 377.299ZM876.961 343.461V376.684H907.02V386H845.936V376.684H865.447V300.658H844.002V291.342H876.697V315.424H877.928C881.18 298.549 893.66 288.969 912.117 288.969C917.566 288.969 922.928 289.76 925.916 291.078V303.646C921.521 302.064 915.457 301.01 910.359 301.01C889.969 301.01 876.961 317.533 876.961 343.461ZM984.363 387.67C966.17 387.67 954.129 376.42 954.129 359.281C954.129 342.67 965.994 332.738 986.912 331.771L1014.33 330.541V321.576C1014.33 307.953 1006.51 300.57 992.01 300.57C980.057 300.57 971.795 305.668 969.158 314.809H957.732C959.49 300.658 973.729 290.551 992.01 290.551C1013.46 290.551 1025.94 301.801 1025.94 321.049V386.088H1014.86V371.146H1013.63C1009.15 381.781 998.689 387.67 984.363 387.67ZM987.176 377.475C1002.47 377.475 1014.33 366.928 1014.33 353.305V340.121L987.703 341.264C973.553 341.879 965.994 348.207 965.994 359.281C965.994 370.531 974.08 377.475 987.176 377.475ZM1099.5 343.461V376.684H1129.56V386H1068.47V376.684H1087.99V300.658H1066.54V291.342H1099.24V315.424H1100.47C1103.72 298.549 1116.2 288.969 1134.66 288.969C1140.11 288.969 1145.47 289.76 1148.46 291.078V303.646C1144.06 302.064 1138 301.01 1132.9 301.01C1112.51 301.01 1099.5 317.533 1099.5 343.461ZM1189.24 419.486C1187.83 419.486 1185.37 419.311 1183.88 419.135V409.115C1185.19 409.379 1187.65 409.467 1189.06 409.467C1197.76 409.467 1202.51 405.072 1207.17 392.504L1209.1 386.615L1173.59 291.342H1186.07L1214.72 373.432H1215.78L1244.34 291.342H1256.65L1219.82 390.57C1211.38 413.334 1204.71 419.486 1189.24 419.486Z" fill="black"/>
<defs>
<filter id="filter0_d_310_85" x="181.2" y="195.2" width="136.6" height="136.6" filterUnits="userSpaceOnUse" color-interpolation-filters="sRGB">
<feFlood flood-opacity="0" result="BackgroundImageFix"/>
<feColorMatrix in="SourceAlpha" type="matrix" values="0 0 0 0 0 0 0 0 0 0 0 0 0 0 0 0 0 0 127 0" result="hardAlpha"/>
<feOffset dx="8" dy="7"/>
<feGaussianBlur stdDeviation="7.9"/>
<feComposite in2="hardAlpha" operator="out"/>
<feColorMatrix type="matrix" values="0 0 0 0 0 0 0 0 0 0 0 0 0 0 0 0 0 0 0.14 0"/>
<feBlend mode="normal" in2="BackgroundImageFix" result="effect1_dropShadow_310_85"/>
<feBlend mode="normal" in="SourceGraphic" in2="effect1_dropShadow_310_85" result="shape"/>
</filter>
<linearGradient id="paint0_linear_310_85" x1="0" y1="15" x2="294" y2="309" gradientUnits="userSpaceOnUse">
<stop stop-color="#31C4F3"/>
<stop offset="1" stop-color="#129ECC"/>
</linearGradient>
<linearGradient id="paint1_linear_310_85" x1="400" y1="415" x2="188" y2="203" gradientUnits="userSpaceOnUse">
<stop stop-color="#22EB91"/>
<stop offset="1" stop-color="#2CB074"/>
</linearGradient>
</defs>
</svg>
